<svg xmlns="http://www.w3.org/2000/svg" fill="none" viewBox="0 0 150 48"><path fill="#CDD5DF" fill-rule="evenodd" d="M47.34 12v23.654h9.575c1.81 0 3.311-.281 4.505-.843 1.193-.563 2.086-1.329 2.68-2.299.592-.978.889-2.079.889-3.303 0-1.201-.247-2.225-.74-3.072-.492-.847-1.128-1.502-1.905-1.964-.77-.47-1.575-.727-2.414-.773v-.231a6.309 6.309 0 0 0 2.09-.913 4.663 4.663 0 0 0 1.49-1.651c.37-.686.555-1.51.555-2.472 0-1.17-.285-2.218-.855-3.141-.562-.925-1.413-1.652-2.553-2.183-1.131-.54-2.552-.809-4.261-.809H47.34Zm8.894 20.073h-4.608v-6.93h4.724c.885 0 1.647.166 2.286.497.64.324 1.132.77 1.479 1.34.346.562.52 1.193.52 1.894 0 .94-.347 1.71-1.04 2.31-.685.593-1.806.89-3.361.89Zm-.37-10.013h-4.238v-6.526h4.33c1.264 0 2.214.297 2.853.89.647.593.97 1.347.97 2.263 0 .693-.173 1.294-.52 1.802-.338.5-.804.89-1.397 1.167-.592.27-1.258.404-1.998.404Zm11.99-4.147v17.74h4.18V25.225c0-.754.174-1.42.52-1.998a3.636 3.636 0 0 1 1.421-1.351c.609-.331 1.294-.497 2.056-.497.354 0 .72.027 1.097.081.385.046.666.1.843.162v-3.846a5.226 5.226 0 0 0-.727-.081 9.698 9.698 0 0 0-.774-.035c-1.016 0-1.921.281-2.714.844-.786.554-1.34 1.343-1.663 2.367h-.185v-2.957h-4.054ZM87.194 36c-1.778 0-3.314-.37-4.608-1.108-1.286-.748-2.275-1.802-2.968-3.165-.693-1.37-1.04-2.984-1.04-4.84 0-1.824.347-3.426 1.04-4.804.7-1.386 1.679-2.464 2.934-3.234 1.255-.778 2.73-1.166 4.423-1.166 1.094 0 2.125.177 3.095.53.978.347 1.84.886 2.588 1.618.754.731 1.347 1.663 1.778 2.795.431 1.124.647 2.464.647 4.019v1.282H82.726c.012.988.2 1.838.565 2.553a4.038 4.038 0 0 0 1.582 1.686c.678.385 1.47.577 2.38.577.608 0 1.158-.085 1.65-.254.494-.177.921-.435 1.283-.774.362-.338.635-.758.82-1.259l3.904.44a6.087 6.087 0 0 1-1.41 2.702c-.685.762-1.562 1.355-2.633 1.779-1.07.415-2.294.623-3.672.623Zm-3.926-12.82a4.602 4.602 0 0 0-.535 1.929h8.342c-.008-.8-.18-1.513-.52-2.137a3.779 3.779 0 0 0-1.42-1.49c-.6-.362-1.301-.543-2.102-.543-.855 0-1.606.208-2.252.624a4.299 4.299 0 0 0-1.513 1.617Zm17.92 11.712c1.293.739 2.829 1.108 4.608 1.108 1.378 0 2.603-.208 3.673-.623 1.07-.424 1.948-1.017 2.633-1.78a6.081 6.081 0 0 0 1.409-2.702l-3.904-.439c-.184.5-.458.92-.82 1.26a3.656 3.656 0 0 1-1.282.773 5.052 5.052 0 0 1-1.651.254c-.909 0-1.702-.192-2.379-.577a4.041 4.041 0 0 1-1.583-1.686c-.364-.715-.553-1.566-.565-2.553h12.358v-1.282c0-1.555-.216-2.895-.647-4.02-.432-1.131-1.024-2.063-1.779-2.794a6.996 6.996 0 0 0-2.587-1.617 8.956 8.956 0 0 0-3.095-.531c-1.694 0-3.169.388-4.424 1.166-1.255.77-2.233 1.848-2.934 3.234-.692 1.378-1.039 2.98-1.039 4.805 0 1.855.347 3.468 1.04 4.839.692 1.363 1.682 2.418 2.968 3.165Zm.147-9.783a4.6 4.6 0 0 1 .534-1.929 4.298 4.298 0 0 1 1.513-1.617c.647-.416 1.398-.623 2.252-.623.801 0 1.502.18 2.102.542a3.776 3.776 0 0 1 1.421 1.49c.339.624.512 1.336.52 2.137h-8.342Zm14.978 10.545v-2.657l9.147-11.468v-.15h-8.847v-3.466h13.964v2.853l-8.709 11.273v.15h9.009v3.465h-14.564Zm20.554-.763c1.292.74 2.829 1.11 4.607 1.11 1.38 0 2.603-.209 3.674-.624 1.069-.424 1.947-1.017 2.633-1.78a6.081 6.081 0 0 0 1.409-2.702l-3.904-.439c-.184.5-.458.92-.82 1.26-.361.338-.79.596-1.282.773a5.059 5.059 0 0 1-1.652.254c-.907 0-1.702-.192-2.379-.577a4.033 4.033 0 0 1-1.582-1.686c-.365-.715-.553-1.566-.565-2.553h12.357v-1.282c0-1.555-.216-2.895-.647-4.02-.431-1.131-1.023-2.063-1.778-2.794a7.005 7.005 0 0 0-2.587-1.617 8.96 8.96 0 0 0-3.095-.531c-1.694 0-3.17.388-4.425 1.166-1.254.77-2.231 1.848-2.932 3.234-.694 1.378-1.04 2.98-1.04 4.805 0 1.855.346 3.468 1.04 4.839.692 1.363 1.682 2.418 2.968 3.165Zm.147-9.782a4.6 4.6 0 0 1 .534-1.929 4.298 4.298 0 0 1 1.513-1.617c.646-.416 1.397-.623 2.252-.623.801 0 1.501.18 2.102.542a3.776 3.776 0 0 1 1.421 1.49c.339.624.511 1.336.519 2.137h-8.341ZM15.079 4.364c8.161 0 14.777 6.616 14.777 14.778 0 .823-.067 1.64-.2 2.441l-.074.402c-.023.179-.085.35-.182.503l-.081.113-8.045 9.959-1.91-1.543 7.732-9.57a2.097 2.097 0 0 0-3.975-.418 2.105 2.105 0 0 0-.085.234l-.003.01a1.101 1.101 0 0 1-.011.05l-.012.037-.006.024h-.001l-.026.082-3.502 9.11-2.29-.881 3.324-8.65c-.473-.84-2.7-1.72-5.433-1.72-2.72 0-4.942.872-5.427 1.712l3.321 8.658-2.291.879-3.499-9.12a1.223 1.223 0 0 1-.055-.185 2.096 2.096 0 0 0-4.06.17l7.724 9.578-1.91 1.541L.84 22.59a1.228 1.228 0 0 1-.245-.516H.592a14.832 14.832 0 0 1-.291-2.932C.3 10.98 6.917 4.364 15.079 4.364ZM9.72 8.04c-3.7 1.79-6.369 5.373-6.877 9.622l-.03.28.088-.053c.366-.203.764-.359 1.187-.457l.213-.044a4.538 4.538 0 0 1 2.807.385c.183-3.847 1.133-7.296 2.612-9.733Zm5.359-1.223.144.005c2.588.167 5.041 4.827 5.367 10.938l.013.284-.158-.08c-1.43-.703-3.326-1.094-5.369-1.094l-.296.003c-1.971.037-3.79.44-5.161 1.136l-.066.033.014-.282c.332-6.224 2.87-10.943 5.512-10.943Zm5.358 1.223c3.7 1.79 6.369 5.373 6.877 9.622l.029.277-.088-.051a4.54 4.54 0 0 0-4.206-.114c-.183-3.847-1.133-7.297-2.612-9.734Z" clip-rule="evenodd"/><path fill="#CDD5DF" fill-rule="evenodd" d="M7.21 36.08a7.866 7.866 0 1 1 15.732 0 7.866 7.866 0 0 1-15.732 0Zm10.248.46-3.369 2.105a.542.542 0 0 1-.83-.46v-4.21c0-.427.47-.686.83-.46l3.369 2.105c.34.212.34.707 0 .92Z" clip-rule="evenodd"/></svg>