<svg xmlns="http://www.w3.org/2000/svg" fill="none" viewBox="0 0 233 48"><g clip-path="url(#a)"><g fill="#CDD5DF" fill-rule="evenodd" clip-path="url(#b)" clip-rule="evenodd"><path d="m29.917 11.315 7.638 7.787a4.171 4.171 0 0 1 0 5.82L25.517 37.195a3.981 3.981 0 0 1-5.709 0L9.768 26.96a1.391 1.391 0 0 1 0-1.94l6.306-6.43 3.357 3.42-3.902 3.98 6.181 6.302a1.33 1.33 0 0 0 1.904 0l10.082-10.281-10.488-10.694a4.68 4.68 0 0 1 6.71-.002Z"/><path d="m18.929 10.805 10.04 10.235c.48.492.52 1.263.12 1.8l-.12.141-6.306 6.431-3.358-3.422 3.903-3.98-6.181-6.302a1.328 1.328 0 0 0-1.766-.122l-.138.122L5.04 25.989l10.49 10.694a4.678 4.678 0 0 1-6.492.212l-.219-.21-7.637-7.787a4.173 4.173 0 0 1-.189-5.613l.189-.207L13.22 10.805a3.98 3.98 0 0 1 5.505-.192l.203.192ZM90.605 18.355c2.5 0 4.53.789 6.087 2.366 1.559 1.578 2.338 3.636 2.338 6.177 0 .492-.027.956-.08 1.392l-.044.322H85.76c.08 1.462.565 2.62 1.447 3.478.882.858 1.989 1.287 3.317 1.287 1.84 0 3.161-.74 3.964-2.218l.117-.228h3.83a7.828 7.828 0 0 1-2.834 3.952c-1.37 1.028-3.065 1.542-5.077 1.542-2.491 0-4.517-.827-6.074-2.478-1.557-1.65-2.337-3.84-2.337-6.573 0-2.73.791-4.916 2.37-6.557 1.577-1.64 3.617-2.462 6.12-2.462Zm34.665 0c2.502 0 4.53.789 6.089 2.366 1.557 1.578 2.337 3.636 2.337 6.177 0 .492-.028.956-.081 1.392l-.044.322h-13.144c.083 1.462.565 2.62 1.449 3.478.88.858 1.988 1.287 3.316 1.287 1.839 0 3.161-.74 3.964-2.218l.117-.228h3.829a7.828 7.828 0 0 1-2.833 3.952c-1.37 1.028-3.063 1.542-5.077 1.542-2.492 0-4.517-.827-6.073-2.478-1.559-1.65-2.337-3.84-2.337-6.573 0-2.73.789-4.916 2.368-6.557 1.577-1.64 3.619-2.462 6.12-2.462Zm99.435 0c2.077 0 3.794.504 5.155 1.509 1.359 1.006 2.278 2.44 2.755 4.303h-3.831c-.643-1.843-2.002-2.763-4.079-2.763-1.454 0-2.612.525-3.472 1.573-.864 1.047-1.294 2.514-1.294 4.397 0 1.884.431 3.355 1.294 4.414.86 1.06 2.018 1.586 3.472 1.586 2.056 0 3.414-.919 4.079-2.76h3.831c-.498 1.777-1.432 3.19-2.802 4.238-1.372 1.047-3.075 1.573-5.108 1.573-2.492 0-4.516-.827-6.073-2.478-1.559-1.65-2.338-3.836-2.338-6.557 0-2.72.784-4.906 2.352-6.558 1.569-1.651 3.587-2.477 6.059-2.477ZM63.366 13.783c2.304 0 4.355.578 6.151 1.731 1.797 1.154 3.102 2.79 3.91 4.906h-4.266c-1.165-2.223-3.095-3.334-5.795-3.334-2.18 0-3.96.73-5.34 2.19-1.382 1.46-2.073 3.393-2.073 5.796 0 2.403.69 4.334 2.071 5.795 1.381 1.462 3.161 2.19 5.342 2.19 2.7 0 4.63-1.11 5.794-3.333h4.267c-.81 2.117-2.113 3.747-3.91 4.89-1.796 1.144-3.846 1.715-6.15 1.715-3.094 0-5.712-1.058-7.85-3.176-2.138-2.116-3.207-4.81-3.207-8.08 0-3.272 1.068-5.971 3.207-8.098 2.138-2.129 4.756-3.192 7.85-3.192Zm101.257 0c2.304 0 4.355.578 6.151 1.731 1.796 1.154 3.101 2.79 3.91 4.906h-4.267c-1.163-2.223-3.095-3.334-5.794-3.334-2.179 0-3.961.73-5.341 2.19-1.382 1.46-2.072 3.393-2.072 5.796 0 2.403.69 4.334 2.072 5.795 1.38 1.462 3.162 2.19 5.341 2.19 2.699 0 4.63-1.11 5.793-3.333h4.268c-.809 2.117-2.114 3.747-3.91 4.89-1.796 1.144-3.846 1.715-6.151 1.715-3.094 0-5.71-1.058-7.849-3.176-2.138-2.116-3.207-4.81-3.207-8.08 0-3.272 1.068-5.971 3.207-8.098 2.138-2.129 4.755-3.192 7.849-3.192Zm-84.75-1.143v23.498h-3.55V12.64h3.551Zm23.173 6.002 4.861 14.256 4.857-14.256h3.833l-6.542 17.496h-4.298l-6.51-17.496h3.8-.001Zm41.583-.287v3.748h-.904c-1.391 0-2.447.36-3.162 1.08-.716.72-1.075 1.968-1.075 3.747v9.208h-3.551V18.642h3.551v3.047c1.1-2.223 2.814-3.334 5.14-3.334h.001Zm36.502-5.715v23.498h-3.552V12.64h3.552Zm6.977 6.002v17.496h-3.551V18.642h3.551Zm12.457-.287c1.932 0 3.526.657 4.782 1.97 1.256 1.312 1.884 3.145 1.884 5.493v10.32h-3.519v-9.78c0-1.567-.384-2.768-1.152-3.603-.769-.836-1.818-1.255-3.146-1.255-1.329 0-2.383.419-3.162 1.255-.779.835-1.168 2.036-1.168 3.603v9.78h-3.552V18.642h3.552v2.763c1.142-2.033 2.969-3.05 5.481-3.05Zm13.487.287v17.496h-3.551V18.642h3.551ZM90.589 21.404c-1.31 0-2.404.43-3.286 1.287-.82.795-1.313 1.843-1.48 3.141l-.032.304h9.531c-.02-1.44-.487-2.589-1.401-3.445-.914-.857-2.025-1.287-3.332-1.287Zm34.664 0c-1.308 0-2.402.43-3.284 1.287-.82.795-1.313 1.843-1.479 3.141l-.033.304h9.532c-.023-1.44-.488-2.589-1.403-3.445-.914-.857-2.024-1.287-3.333-1.287Zm61.094-9.718c.633 0 1.17.224 1.605.668.435.445.653.996.653 1.651 0 .657-.218 1.207-.653 1.65a2.162 2.162 0 0 1-1.605.668 2.16 2.16 0 0 1-1.604-.666c-.437-.445-.654-.995-.654-1.65 0-.657.217-1.208.654-1.653a2.167 2.167 0 0 1 1.604-.668Zm25.945 0a2.16 2.16 0 0 1 1.604.668c.437.445.654.996.654 1.651 0 .657-.217 1.207-.654 1.65-.435.445-.97.668-1.604.668a2.166 2.166 0 0 1-1.605-.666c-.434-.445-.653-.995-.653-1.65 0-.657.219-1.208.653-1.653a2.172 2.172 0 0 1 1.605-.668Z"/></g></g><defs><clipPath id="a"><path fill="#fff" d="M0 0h233v48H0z"/></clipPath><clipPath id="b"><path fill="#fff" d="M0 9.6h232.615v28.8H0z"/></clipPath></defs></svg>