<svg xmlns="http://www.w3.org/2000/svg" fill="none" viewBox="0 0 176 48"><g fill="#CDD5DF" clip-path="url(#a)"><path d="M23.18 41.82v5.795H6.168v-5.794h17.014ZM14.675 6.624c8.082 0 14.674 6.439 14.674 14.81 0 8.155-6.592 14.808-14.674 14.808C6.593 36.241 0 29.588 0 21.432c0-8.37 6.593-14.809 14.674-14.809Zm0 5.795c-4.891 0-8.932 4.078-8.932 9.014 0 4.936 4.04 9.014 8.932 9.014s8.932-4.078 8.932-9.014c0-4.936-4.04-9.014-8.932-9.014ZM63.702 17.771c.924 0 1.718.21 2.382.627a3.772 3.772 0 0 1 1.473 1.71v-2.185h3.682v12.003c0 1.125-.217 2.134-.65 3.028a4.965 4.965 0 0 1-1.992 2.163c-.896.534-2.007.8-3.336.8-1.819 0-3.277-.432-4.375-1.297-1.083-.85-1.732-2.012-1.949-3.482h3.66c.116.49.376.872.78 1.146.419.274.96.41 1.624.41.765 0 1.38-.223 1.841-.67.477-.432.715-1.132.715-2.098v-2.12a3.771 3.771 0 0 1-1.473 1.71c-.664.418-1.458.627-2.382.627-.996 0-1.892-.245-2.686-.736-.78-.504-1.4-1.225-1.862-2.163-.448-.937-.672-2.033-.672-3.287 0-1.269.224-2.365.672-3.288.462-.937 1.082-1.65 1.862-2.14.794-.505 1.69-.758 2.686-.758Zm15.74 0c1.198 0 2.266.253 3.205.757a5.319 5.319 0 0 1 2.23 2.141c.549.938.823 2.034.823 3.288s-.274 2.35-.823 3.287a5.457 5.457 0 0 1-2.23 2.163c-.939.49-2.007.736-3.206.736-1.198 0-2.274-.245-3.227-.736a5.601 5.601 0 0 1-2.252-2.163c-.534-.937-.802-2.033-.802-3.287 0-1.255.268-2.35.802-3.288a5.457 5.457 0 0 1 2.252-2.14c.953-.505 2.029-.758 3.227-.758Zm46.124 0c1.198 0 2.252.245 3.161.736a5.103 5.103 0 0 1 2.101 2.076c.506.88.759 1.896.759 3.05 0 .302-.037.634-.109.994h-8.382c.044.909.274 1.565.694 1.969.418.389.952.584 1.602.584.548 0 1.003-.137 1.365-.411a1.92 1.92 0 0 0 .714-1.06h3.921a5.204 5.204 0 0 1-1.04 2.293 5.693 5.693 0 0 1-2.036 1.578c-.823.375-1.74.563-2.75.563-1.184 0-2.239-.245-3.163-.736a5.424 5.424 0 0 1-2.144-2.163c-.519-.937-.779-2.033-.779-3.287 0-1.269.253-2.365.757-3.288a5.25 5.25 0 0 1 2.166-2.14c.924-.505 1.979-.758 3.163-.758Zm22.896-.806c1.208 0 2.268.26 3.183.779a5.28 5.28 0 0 1 2.115 2.199c.509.931.763 2.008.763 3.23 0 .321-.036.672-.109 1.054h-8.436c.043.962.276 1.657.697 2.085.422.412.96.618 1.614.618.552 0 1.01-.145 1.372-.435.364-.29.604-.664.72-1.122h3.946a5.643 5.643 0 0 1-1.046 2.428 5.783 5.783 0 0 1-2.05 1.673c-.828.397-1.751.595-2.769.595-1.191 0-2.252-.26-3.182-.779-.916-.534-1.635-1.298-2.158-2.29-.523-.994-.785-2.154-.785-3.483 0-1.344.255-2.505.763-3.482.523-.993 1.25-1.75 2.18-2.269.93-.534 1.991-.801 3.182-.801Zm12.43 0c1.54 0 2.769.404 3.685 1.214.93.81 1.51 1.878 1.743 3.207h-3.488c-.101-.52-.334-.924-.697-1.214-.349-.306-.792-.458-1.33-.458-.422 0-.741.1-.96.298-.217.183-.327.45-.327.802 0 .397.197.694.589.893.407.198 1.04.397 1.897.596.93.229 1.693.465 2.289.71.595.229 1.112.61 1.548 1.145.435.535.654 1.253.654 2.154 0 .733-.189 1.382-.567 1.947-.378.565-.923 1.008-1.635 1.329-.712.32-1.555.481-2.529.481-1.643 0-2.957-.382-3.945-1.145-.989-.764-1.592-1.856-1.81-3.276h3.597c.058.55.276.97.653 1.26.393.29.895.435 1.505.435.422 0 .741-.1.96-.298.217-.214.327-.489.327-.825 0-.443-.204-.756-.611-.939-.393-.199-1.039-.405-1.94-.619-.902-.198-1.643-.412-2.223-.641a3.713 3.713 0 0 1-1.505-1.1c-.422-.52-.633-1.222-.633-2.107 0-1.146.415-2.07 1.243-2.773.829-.718 1.998-1.076 3.51-1.076ZM92.017 14.96v2.963h2.426v3.114h-2.426v4.499c0 .476.094.807.282.995.202.187.534.28.996.28h1.17v3.18h-1.668c-1.415 0-2.52-.346-3.314-1.038-.78-.706-1.17-1.867-1.17-3.482v-4.434H86.69v-3.114h1.625V14.96h3.703Zm8.926 0v2.963h2.425v3.114h-2.425v4.499c0 .476.094.807.281.995.202.187.534.28.996.28h1.17v3.18h-1.667c-1.416 0-2.52-.346-3.314-1.038-.78-.706-1.17-1.867-1.17-3.482v-4.434h-1.624v-3.114h1.624V14.96h3.704Zm8.232-.974v6.143a4.003 4.003 0 0 1 1.537-1.709c.694-.418 1.502-.627 2.426-.627 1.387 0 2.483.461 3.293 1.384.822.923 1.234 2.192 1.234 3.807v7.007h-3.704v-6.575c0-.807-.216-1.434-.649-1.881-.419-.462-.982-.692-1.69-.692-.75 0-1.349.237-1.797.713-.434.476-.65 1.154-.65 2.033v6.402h-3.704V13.986h3.704Zm29.236 0v3.139h2.441v3.299h-2.441v4.765c0 .504.094.856.283 1.054.203.199.538.298 1.003.298h1.177v3.368h-1.679c-1.424 0-2.536-.367-3.335-1.1-.785-.748-1.178-1.978-1.178-3.688v-4.697h-1.634v-3.3h1.634v-3.138h3.729Zm34.574 0v3.139h2.441v3.299h-2.441v4.765c0 .504.094.856.283 1.054.203.199.538.298 1.003.298h1.177v3.368h-1.679c-1.424 0-2.536-.367-3.335-1.1-.785-.748-1.178-1.978-1.178-3.688v-4.697h-1.634v-3.3h1.634v-3.138h3.729Zm-93.544 6.986a2.38 2.38 0 0 0-1.797.779c-.477.505-.715 1.24-.715 2.206s.238 1.701.715 2.206c.49.505 1.09.757 1.797.757.708 0 1.3-.252 1.776-.757.477-.505.715-1.24.715-2.206s-.238-1.701-.715-2.206a2.312 2.312 0 0 0-1.776-.779Zm-14.548.043c-.794 0-1.437.26-1.928.78-.476.518-.714 1.24-.714 2.162 0 .923.238 1.644.715 2.163.49.519 1.133.778 1.927.778.78 0 1.415-.266 1.906-.8.505-.533.758-1.247.758-2.141 0-.908-.253-1.622-.758-2.141-.491-.534-1.126-.8-1.906-.8Zm60.673-.324c-.68 0-1.242.202-1.69.606-.448.403-.7.994-.758 1.773h4.721c.015-.793-.202-1.384-.65-1.773-.432-.404-.974-.606-1.623-.606Zm22.896-.634c-.682 0-1.25.214-1.699.642-.451.428-.705 1.054-.764 1.879h4.753c.014-.84-.203-1.467-.654-1.88-.437-.427-.981-.64-1.636-.64ZM41.044.827l-.001 5.795 5.746.001v5.58h-5.746v5.794h-5.529v-5.794h-5.739v-5.58h5.739V.827h5.53Z"/></g><defs><clipPath id="a"><path fill="#fff" d="M0 0h175.448v48H0z"/></clipPath></defs></svg>