<svg xmlns="http://www.w3.org/2000/svg" fill="none" viewBox="0 0 165 48"><g fill="#CDD5DF" fill-rule="evenodd" clip-path="url(#a)" clip-rule="evenodd"><path d="M83.5 18.747c1.375-2.349 3.717-3.323 6.482-3.335 4.274-.02 6.71 2.658 6.71 6.872V33.04h-2.904V22.937c0-2.945-1.724-4.734-4.686-4.72-3.322.018-5.318 2.232-5.602 5.442v9.382h-2.903V15.51H83.5v3.237Zm-8.573-6.471c.75 0 1.6.293 2.317.783l1.568-3.232c-1.176-.784-2.71-1.209-4.18-1.209-3.232 0-6.203 1.992-6.203 6.008v1.666h-2.286v3.101h2.286v13.648h4.245V19.393h4.375v-3.101h-4.375v-1.796c0-1.535 1.011-2.22 2.252-2.22Zm-19.14 3.167c-2.612 0-4.637 1.077-5.877 3.003v-2.873h-4.245v23.803h4.245V30.2c1.273 1.926 3.298 3.004 5.942 3.004 4.963 0 8.196-3.56 8.196-8.816 0-5.355-3.33-8.946-8.261-8.946Zm-.947 14.105c-2.906 0-4.93-2.155-4.93-5.29 0-3.069 2.024-5.257 4.93-5.257 2.873 0 4.897 2.188 4.897 5.257 0 3.102-2.024 5.29-4.897 5.29Zm108.652-10.313c-1.316-.835-3.013-1.343-4.573-1.343-1.416 0-3.217.394-3.217 2.139 0 3.664 9.599 1.768 9.599 8.065 0 3.62-3.31 5.043-6.48 5.043-2.377 0-4.984-.798-6.719-2.466l-.097-.093 1.152-2.187.17.16c1.445 1.347 3.624 2.14 5.592 2.14 1.521 0 3.47-.493 3.511-2.34.087-3.966-9.523-1.923-9.502-8.127.013-3.481 3.083-4.847 6.154-4.847 1.914 0 3.977.542 5.584 1.597l.132.087-1.139 2.278-.167-.106Zm-16.739 10.517c-1.303 2.355-3.584 3.375-6.35 3.387-4.222.02-6.612-2.739-6.612-6.872V15.51h2.904v10.104c0 2.902 1.649 4.72 4.585 4.72 3.623-.067 5.473-2.79 5.473-6.222V15.51h2.905V33.04h-2.905v-3.29Zm-22.778-7.812 4.543-6.43h3.241l-5.869 8.504 6.296 9.027h-3.408l-4.806-6.921-4.967 6.921h-3.311l6.396-9.027-5.969-8.504h3.376l4.478 6.43Zm-21.964 3.46c.478 3.152 2.784 5.26 6.032 5.26 1.972 0 3.824-.697 5.192-2.132l.13-.136 1.648 1.725-.112.123c-1.818 2-4.39 2.9-7.054 2.9-5.21 0-8.734-3.69-8.734-8.864 0-5.141 3.525-8.849 8.701-8.864 5.94-.02 8.459 4.302 8.211 9.818l-.008.17h-14.006Zm-.003-2.38h11.363c-.232-3.14-2.364-5.128-5.557-5.128-3.176 0-5.391 2.037-5.806 5.128ZM5.3 33.815a2.64 2.64 0 0 1 .001-2.691l2.485-4.304a2.64 2.64 0 0 1 2.33-1.345h7.454c.598 0 1.099-.29 1.398-.807l4.97-8.608a1.565 1.565 0 0 0 0-1.614 1.564 1.564 0 0 0-1.398-.807H5.456l1.708-2.96c.887-1.535 2.422-2.42 4.195-2.42h12.424c1.773 0 3.308.886 4.195 2.421l1.863 3.228a2.64 2.64 0 0 1 0 2.69L22.385 29.51a2.64 2.64 0 0 1-2.33 1.345h-7.454c-.598 0-1.099.29-1.398.808L7.631 37.85l-.467-.807-1.863-3.228ZM32.482 18.48l1.709 2.959c.886 1.535.886 3.307 0 4.843l-6.212 10.76c-.887 1.535-2.422 2.42-4.194 2.42l-13.358.002 2.33-4.036a2.64 2.64 0 0 1 2.33-1.345h7.455c.598 0 1.099-.29 1.398-.807L32.48 18.48Zm-29.666-.268a2.64 2.64 0 0 1 2.33-1.345h14.601l-2.33 4.035a2.64 2.64 0 0 1-2.33 1.345H7.631c-.598 0-1.1.29-1.398.807L2.66 29.242l-1.709-2.96c-.887-1.535-.886-3.307 0-4.842l1.863-3.228Z"/></g><defs><clipPath id="a"><path fill="#fff" d="M0 0h165v48H0z"/></clipPath></defs></svg>