<svg xmlns="http://www.w3.org/2000/svg" fill="none" viewBox="0 0 123 48"><g clip-path="url(#a)"><g clip-path="url(#b)"><path fill="#CDD5DF" d="M116.563 30.543c-.35.927-.764 1.833-1.231 2.69a15.008 15.008 0 0 1-1.49 2.265c-.521.646-1.065 1.17-1.614 1.56-.529.374-1.072.564-1.613.564-.508 0-.865-.211-1.09-.646-.245-.471-.376-1.142-.388-1.993-.012-.865.092-1.798.311-2.773a18.48 18.48 0 0 1 .897-2.875c.379-.933.819-1.83 1.308-2.671a15.901 15.901 0 0 1 1.529-2.21c.521-.62 1.049-1.12 1.568-1.484.498-.35.938-.527 1.307-.527.371 0 .658.066.852.195.511.34.77 1.184.77 2.51.025 1.56-.35 3.375-1.116 5.395Zm-32.458-2.985c-1.222 3.138-2.645 5.666-4.23 7.515-1.051 1.222-1.931 1.841-2.618 1.841-.314 0-1.268 0-1.268-2.09 0-1.903.388-3.847 1.152-5.777a16.06 16.06 0 0 1 1.275-2.52 11.6 11.6 0 0 1 1.56-2.003 7.543 7.543 0 0 1 1.712-1.322c.572-.314 1.073-.472 1.49-.472.411 0 .72.06.917.18.612.37.935.932.99 1.718-.263.97-.592 1.955-.98 2.93Zm-52.45-2.107c1.191-1.768 2.434-2.664 3.694-2.664.48 0 1.116.175 1.116 1.689 0 1.199-.706 2.48-2.097 3.81-1.452 1.357-3.174 2.175-5.121 2.435.618-2.016 1.428-3.788 2.409-5.27Zm90.149-2.028c-.962-2.381-2.821-3.59-5.527-3.59-2.039 0-4.03.736-5.921 2.186a13.6 13.6 0 0 0-.991.859 6.57 6.57 0 0 0 .01-.666c-.02-.593-.246-1.141-.672-1.63-.434-.496-1.01-.748-1.712-.748-.678 0-1.27.144-1.762.431-1.605.984-3.264 3.004-4.932 6.01l-.747 1.415-.017.045a.815.815 0 0 1-.076.191 7.08 7.08 0 0 1 .034-.151c.05-.212.157-.542.318-.981.167-.455.333-.935.5-1.441.165-.505.312-1.029.435-1.557a6.731 6.731 0 0 0 .177-1.599c-.007-.565-.277-1.103-.8-1.6a2.791 2.791 0 0 0-.898-.558c-.348-.136-.83-.205-1.433-.205-.611 0-1.213.156-1.794.466a2.502 2.502 0 0 0-.707.584c-.198.243-.294.504-.286.776.009.287.096.497.27.63l.386.271c.329.22.506.594.54 1.13 0 1.44-.587 3.847-1.742 7.174-2.23 5.371-6.117 5.441-6.814 5.437-.697-.003-1.038-.162-1.038-1.554 0-.247.012-.484.038-.716.087-1.572 1.74-5.665 4.91-12.157.259-.485-.012-1.023-.806-1.6-.404-.293-.998-.441-1.765-.441-.713 0-1.48.642-2.341 1.96-.959-1.301-2.21-1.96-3.722-1.96-1.58 0-3.295.676-5.093 2.009-1.79 1.3-3.289 3-4.456 5.055-.122.21-.233.421-.344.632a7.68 7.68 0 0 0-.36.719c-1.632 3.683-5.443 8.186-7.363 8.22-.262-.03-.522-.182-.522-.823 0-1.259.761-4.113 2.265-8.484l2.639-7.765a91.048 91.048 0 0 0 1.19-3.71c.341-1.16.626-2.252.844-3.246.218-.994.342-1.852.368-2.552.028-.755-.36-1.443-1.154-2.047-.417-.305-.947-.46-1.575-.46-.721 0-1.614.31-1.773 1.792-.353 3.588-1.682 8.746-3.949 15.333l-.381 1.13C60.974 31.233 53.23 36.974 49.446 36.99c-.795.004-1.405-.286-1.865-.875-.797-1.04-.901-2.73-.308-5.028.688-2.68 1.888-4.908 3.563-6.62 1.128-1.154 2.21-1.737 3.22-1.737.494 0 .844.102 1.04.305.15.155.219.374.209.67-.036 1.102-.455 2.08-1.24 2.902-.285.285-.52.493-.7.618-.234.164-.377.355-.426.568-.156.628-.026 1.185.388 1.657.46.528 1.168.796 2.106.796.858 0 1.707-.595 2.52-1.77a7.62 7.62 0 0 0 .886-1.74 6.78 6.78 0 0 0 .385-2.15c.02-.785-.112-1.5-.39-2.126-.787-1.742-2.284-2.626-4.453-2.626-2.06 0-4.049.649-5.91 1.93-.657.447-1.282.963-1.868 1.54-1.675 1.715-3.138 4.533-3.138 4.533-2.922 5.955-8.69 9.045-12.438 9.153-.797.024-1.391-.342-1.816-1.05a3.305 3.305 0 0 1-.432-1.11 4.923 4.923 0 0 1-.11-1.147c.008-.25.026-.454.055-.608 2.018-.041 3.942-.379 5.72-1.004.887-.321 1.72-.72 2.476-1.185a9.514 9.514 0 0 0 1.974-1.594 6.95 6.95 0 0 0 1.31-1.99c.316-.73.483-1.534.495-2.393.013-.86-.114-1.617-.378-2.25-.757-1.875-2.288-2.825-4.55-2.825-1.898 0-3.8.703-5.652 2.088a15.05 15.05 0 0 0-2.375 2.259 17.493 17.493 0 0 0-1.907 2.729c-.54.958-.977 1.963-1.298 2.985a12.738 12.738 0 0 0-.564 3.238c-.05 1.401.177 2.63.672 3.674-2.262 1.486-4.557-1.028-5.764-3.27l-1.53-2.735c-.577-1.018-1.198-1.84-1.85-2.448 2.587-.793 4.867-2.078 6.782-3.821 2.33-2.097 3.51-4.459 3.51-7.019 0-2.17-.862-3.981-2.561-5.38-.845-.689-1.9-1.242-3.137-1.643-1.232-.4-2.422-.604-3.535-.604-1.097 0-2.018.04-2.737.117-3.57.385-6.169 1.257-7.724 2.591-.568.482-.873.991-.907 1.51-.032.492.177.99.624 1.484.243.257.524.472.835.641.321.176.663.265 1.015.265.37 0 .753-.176 1.14-.521.34-.303.822-.639 1.432-1 2.113-1.25 4.227-1.884 6.284-1.884 3.248 0 4.826 1.178 4.826 3.601 0 2.285-1.089 4.362-3.237 6.175a13.532 13.532 0 0 1-6.772 3.1l.498-1.494c.341-.973 1.483-4.075 1.677-4.538.15-.36.284-.732.284-1.16 0-.455-.243-.899-.721-1.322a2.75 2.75 0 0 0-.724-.444 2.498 2.498 0 0 0-.979-.18c-.388 0-.764.137-1.136.421-.938.898-1.697 2.514-3.033 6.303l-.784 2.291C4.115 32.492 1.996 36.551.126 37.91c-.246.18-.37.455-.37.815 0 .353.158.675.461.949.146.145.328.266.542.359.43.185.993.187 1.488-.005 2.789-.976 5.554-4.92 8.221-11.725.545.19 1.006.567 1.375 1.129.195.282.376.603.536.954.167.366.368.775.597 1.214.226.432.475.958.742 1.569l.862 1.877c.306.638.647 1.274 1.013 1.89.37.624.797 1.196 1.27 1.7.478.51 1.03.939 1.639 1.274.615.337 1.424.573 2.407.617 2.386.105 4.38-.937 5.408-1.612 1.105.872 2.506 1.316 4.174 1.316.04 0 .08-.006.12-.008.003 0 .003.008.007.008 4.535-.104 8.812-3.604 11.572-6.474.043 1.962.596 3.522 1.657 4.632 1.17 1.222 2.843 1.916 4.968 1.842 4.867-.17 9.326-3.929 11.913-6.62-.243.968-.374 1.778-.374 2.388 0 .704.105 1.334.31 1.872.207.54.482.99.819 1.34.337.352.72.62 1.144.777 3.03 1.107 6.373-2.165 8.722-5.248.087 1.385.47 2.584 1.151 3.569a4.76 4.76 0 0 0 1.55 1.408c.607.34 1.333.514 2.155.514.82 0 1.604-.188 2.333-.559 1.535-.8 2.868-2.176 3.974-4.097-.031.346-.047.683-.047 1.008 0 .43.101.913.302 1.436.417 1.02 1.083 1.677 1.961 2.01 2.333.884 5.08-.62 7.152-2.238a1.46 1.46 0 0 0-.023.347c.016.208.107.44.281.708.166.255.388.488.661.693.27.203.58.37.922.498.347.129.7.194 1.047.194.394 0 .698-.149.904-.44.177-.253.372-.652.598-1.222l.84-2.218c1.263-3.268 2.913-6.263 4.909-8.902.588-.79 1.162-1.443 1.705-1.942.514-.473 1.815-.996 2.465-.205.668.814.001 1.885-.051 1.99a16.062 16.062 0 0 0-1.182 3.217 12.949 12.949 0 0 0-.398 3.303c.013 1.092.178 2.052.492 2.855.316.81.757 1.488 1.312 2.015a5.203 5.203 0 0 0 1.98 1.175c.751.248 1.616.374 2.57.374.958 0 1.946-.198 2.935-.588 1.951-.776 3.666-2.104 5.097-3.947 1.439-1.838 2.443-3.885 2.982-6.083.595-2.402.554-4.484-.122-6.19Z"/></g></g><defs><clipPath id="a"><path fill="#fff" d="M0 0h123v48H0z"/></clipPath><clipPath id="b"><path fill="#fff" d="M-.244 7.2h122.769v33.6H-.245z"/></clipPath></defs></svg>