<svg xmlns="http://www.w3.org/2000/svg" fill="none" viewBox="0 0 156 48"><path fill="#CDD5DF" d="M62.827 12.458h3.222c.333 0 .608.08.827.242.228.152.38.361.456.627l3.507 12.332c.086.304.162.637.228.998.076.351.147.727.214 1.126.076-.4.157-.775.242-1.126.095-.361.195-.694.3-.998l4.048-12.332c.076-.218.224-.418.442-.598.228-.181.504-.271.827-.271h1.126c.333 0 .609.08.827.242.219.152.37.361.456.627l4.02 12.332c.21.608.39 1.283.542 2.024.067-.37.133-.727.2-1.07.076-.341.152-.66.228-.954l3.507-12.332a1.15 1.15 0 0 1 .442-.613c.228-.17.504-.256.827-.256h3.008l-6.401 20.614h-3.464l-4.505-14.085-.186-.585a22.516 22.516 0 0 1-.17-.67 9.594 9.594 0 0 1-.186.67c-.057.21-.114.404-.171.585l-4.548 14.085h-3.464l-6.4-20.614ZM98.706 18.445v14.627h-3.521V18.445h3.52Zm.527-4.262c0 .304-.061.589-.185.855a2.29 2.29 0 0 1-.499.699c-.2.2-.437.36-.713.484a2.29 2.29 0 0 1-.883.171c-.305 0-.594-.057-.87-.17a2.42 2.42 0 0 1-.699-.485c-.2-.2-.36-.433-.484-.699a2.147 2.147 0 0 1-.172-.855c0-.314.058-.609.172-.884.123-.276.285-.513.484-.713.2-.2.433-.356.699-.47.276-.124.565-.186.87-.186.313 0 .608.062.883.186.276.114.514.27.713.47.21.2.375.437.5.713.123.275.184.57.184.884ZM107.017 11.887v21.185h-3.521V11.887h3.521ZM121.871 33.072c-.456 0-.756-.214-.898-.642l-.285-1.411a8.79 8.79 0 0 1-.955.927 5.924 5.924 0 0 1-1.084.712c-.38.2-.793.352-1.24.457a5.632 5.632 0 0 1-1.426.17c-.798 0-1.53-.166-2.195-.498a4.99 4.99 0 0 1-1.725-1.44c-.475-.637-.846-1.421-1.112-2.352-.257-.932-.385-1.996-.385-3.194 0-1.083.147-2.09.442-3.022.295-.931.718-1.74 1.269-2.424a5.846 5.846 0 0 1 1.981-1.596c.77-.39 1.635-.585 2.595-.585.817 0 1.516.133 2.096.4a5.373 5.373 0 0 1 1.553 1.04v-7.727h3.522v21.185h-2.153Zm-4.69-2.58c.732 0 1.354-.152 1.867-.457.514-.304.998-.736 1.454-1.297V22.18c-.399-.484-.836-.827-1.311-1.026-.466-.2-.969-.3-1.511-.3-.532 0-1.017.1-1.454.3-.428.2-.794.504-1.098.912-.295.4-.523.913-.684 1.54-.162.618-.243 1.35-.243 2.195 0 .856.067 1.583.2 2.182.142.589.342 1.073.599 1.454.256.37.57.641.941.812.37.162.784.242 1.24.242ZM134.454 18.217c.922 0 1.767.147 2.537.442.78.295 1.45.727 2.01 1.297.561.561.998 1.255 1.312 2.082.314.817.47 1.753.47 2.808 0 .266-.014.49-.042.67a.958.958 0 0 1-.129.414.528.528 0 0 1-.242.213 1.185 1.185 0 0 1-.399.058h-9.038c.104 1.501.508 2.604 1.211 3.307.704.703 1.635 1.055 2.794 1.055.571 0 1.06-.067 1.469-.2.418-.133.779-.28 1.083-.442.314-.161.585-.309.813-.442a1.4 1.4 0 0 1 .684-.2c.143 0 .266.03.371.086a.824.824 0 0 1 .271.243l1.026 1.283c-.39.456-.827.84-1.311 1.154a7.807 7.807 0 0 1-1.526.742c-.523.18-1.06.309-1.611.385-.541.076-1.069.114-1.582.114a7.91 7.91 0 0 1-2.837-.5 6.479 6.479 0 0 1-2.281-1.496c-.646-.665-1.155-1.483-1.525-2.452-.371-.98-.556-2.11-.556-3.393 0-.998.161-1.934.484-2.808a6.731 6.731 0 0 1 1.383-2.296 6.585 6.585 0 0 1 2.21-1.554c.874-.38 1.858-.57 2.951-.57Zm.071 2.523c-1.026 0-1.829.29-2.409.87-.58.58-.951 1.402-1.112 2.466h6.615c0-.456-.062-.884-.186-1.283a2.953 2.953 0 0 0-.57-1.069 2.636 2.636 0 0 0-.969-.713c-.39-.18-.846-.27-1.369-.27ZM144.21 33.072V18.445h2.067c.361 0 .613.067.756.2.142.133.237.36.285.684l.214 1.768c.522-.903 1.135-1.616 1.839-2.139a3.869 3.869 0 0 1 2.366-.784c.722 0 1.321.167 1.796.5l-.456 2.637c-.028.17-.09.294-.185.37a.66.66 0 0 1-.385.1c-.143 0-.337-.033-.585-.1-.247-.066-.575-.1-.983-.1-.732 0-1.359.205-1.882.614-.523.399-.965.988-1.326 1.767v9.11h-3.521Z"/><path fill="#CDD5DF" fill-rule="evenodd" d="M21.008 10.531a4.227 4.227 0 1 0-3.244-7.808 4.227 4.227 0 0 0 3.244 7.808Zm-17.98 5.296a6.046 6.046 0 0 1 11.553 3.244l6.386 3.228 6.078-10.179 10.572 5.35 6.04-10.18 6.973 3.581-2.967 4.974a.79.79 0 0 1 .265.37.768.768 0 0 1-.52.945.746.746 0 0 1-.502-.044l-.807 1.354a.757.757 0 0 1 .69.552.762.762 0 0 1-.519.945.757.757 0 0 1-.85-.343l-4.836 8.124-5.764-2.918c.022.035.04.072.056.11a.757.757 0 1 1-.94-.519h.061l-1.603-.812a.751.751 0 1 1-1.31-.669l-1.104-.553-1.166 1.962a.73.73 0 0 1-.476.79l-.906 1.531a.74.74 0 0 1-.752 1.26l-.795 1.337a.768.768 0 0 1 .127 1.498.746.746 0 0 1-.83-.31l-1.265 2.123-1.47-.774a.746.746 0 0 1-.867-.442L13.4 27.228l-4.769 7.98a.74.74 0 0 1-.425.707l-.884 1.492-6.875-3.746 5.892-9.895a6.046 6.046 0 0 1-3.313-7.938Zm1.847 25.21a.768.768 0 0 1 .52-.944.757.757 0 0 1 .939.52.768.768 0 0 1-.52.944.757.757 0 0 1-.94-.52Zm2.424 1.456a.763.763 0 1 1 1.516.17.763.763 0 0 1-1.516-.17Zm1.978-3.47a.763.763 0 1 1-.167 1.516.763.763 0 0 1 .167-1.516Zm1.708 2.156a.757.757 0 0 1 .455-.362.701.701 0 0 1 .475 0l-.752 1.293a.73.73 0 0 1-.243-.354.757.757 0 0 1 .065-.577Zm1.044-2.328a.757.757 0 0 1 .543-.797v-.044a.752.752 0 0 1 .835.353l-.696 1.172a.757.757 0 0 1-.682-.683Zm-1.614-2.575c.307.034.563.25.649.545v-.044a.757.757 0 0 1-.52.99.763.763 0 1 1-.129-1.49Zm-.158 7.381-.48.813v-.045a.746.746 0 0 1 .48-.768Zm-6.808-3.851.442-.746v-.045a.735.735 0 0 1-.442.79Zm3.374-2.485c.307.034.563.249.649.545v-.044a.762.762 0 0 1-.52.989.763.763 0 1 1-.129-1.49Zm4.725-3.835a.763.763 0 0 1 .649.545v-.044a.763.763 0 0 1-.52.989.763.763 0 1 1-.129-1.49Zm1.613 2.424a.763.763 0 0 1 .55-.647v-.044a.757.757 0 0 1 .94.564.763.763 0 1 1-1.49.127Zm-1.316-4.585a.763.763 0 1 1 1.516.167.763.763 0 0 1-1.516-.167Zm2.542 2.028a.763.763 0 1 1 1.464-.427.763.763 0 0 1-1.464.427Zm2.396 1.778a.763.763 0 1 1 1.465-.426.763.763 0 0 1-1.465.426Zm-.786-5.436a.763.763 0 1 1 .427 1.464.763.763 0 0 1-.427-1.464Zm-1.53-1.29a.768.768 0 0 1-.519.945.763.763 0 0 1-.42-1.464.757.757 0 0 1 .94.52Zm4.267 2.948a.763.763 0 1 1-.174 1.515.763.763 0 0 1 .174-1.515Zm2.451 1.735a.762.762 0 1 1-.167 1.515.762.762 0 0 1 .168-1.515Zm-1.981 3.584a.752.752 0 0 1 .552-.768h-.016a.757.757 0 0 1 .63 1.354l-1.166-.586Zm2.591 1.299a.73.73 0 0 1 .415-.315v.017a.752.752 0 0 1 .94.497.734.734 0 0 1-.028.475l-1.327-.674Zm1.063-2.153a.763.763 0 1 1 1.464-.427.763.763 0 0 1-1.464.427Zm2.4 1.758a.757.757 0 0 1 .516-.937l.028-.01a.757.757 0 0 1 .912.53.757.757 0 0 1-1.456.417Zm1.194-3.338a.763.763 0 1 1 1.339.74.763.763 0 0 1-1.339-.74Zm-1.702-2.14c.306.034.562.25.648.546l.028-.039a.769.769 0 0 1-.547.984.763.763 0 1 1-.13-1.49Zm.858 7.802-.95-.481a.751.751 0 0 1 .95.48Zm1.91-8.205a.763.763 0 0 1 .55-.648h.005a.762.762 0 1 1-.554.649Zm1.977-3.469a.763.763 0 0 1 .65.544h.006a.757.757 0 0 1-.52.945.763.763 0 1 1-.136-1.489Zm1.71 2.138a.757.757 0 0 1 .455-.362h.005a.712.712 0 0 1 .437.023l-.746 1.248a.724.724 0 0 1-.152-.909Zm1.105-2.79a.757.757 0 0 1 .455-.362h.033c.4-.115.82.11.945.508a.757.757 0 0 1-.52.94.767.767 0 0 1-.978-.509.757.757 0 0 1 .065-.578Zm-1.946-2.052a.763.763 0 1 1 .427 1.464.763.763 0 0 1-.427-1.464Zm.069 7.326-.431.719h-.006a.724.724 0 0 1 .437-.719Zm4.279-3.241a.763.763 0 0 1 .545-.65h-.006a.758.758 0 0 1 .95.52.763.763 0 1 1-1.49.13Zm1.974-3.469a.763.763 0 0 1 .649.549h-.006c.118.4-.11.82-.508.94a.763.763 0 1 1-.135-1.489Zm2.46 1.75a.762.762 0 0 1 .648.545h-.006a.768.768 0 0 1-.514.945.763.763 0 1 1-.129-1.49Zm-1.955 3.761a.763.763 0 1 1 1.465-.425.763.763 0 0 1-1.465.425Zm2.457 1.744a.757.757 0 1 1 1.455-.42.757.757 0 0 1-1.455.42Zm1.649-3.728a.763.763 0 0 1 .945.514.763.763 0 0 1-.52.945.763.763 0 0 1-.425-1.459Zm1.931 2.694a.758.758 0 0 1 .523-.936.762.762 0 0 1 .967.519v.044l-.553.896a.758.758 0 0 1-.937-.523Zm1.115-3.05a.763.763 0 0 1 .546-.65v-.038a.768.768 0 0 1 .945.558.763.763 0 1 1-1.49.13Zm-2.457-1.747a.763.763 0 0 1 .55-.649v-.038a.757.757 0 0 1 .939.552.763.763 0 1 1-1.489.135Zm.179 7.43a.752.752 0 0 1 .553-.806.724.724 0 0 1 .619.143l-.553.973-.619-.31Zm.98-9.971a.769.769 0 0 1 .523-.954l.006.017a.763.763 0 1 1 .425 1.459.768.768 0 0 1-.953-.522Zm2.466 1.73a.757.757 0 0 1 .516-.937v.016a.757.757 0 0 1 .94.503.757.757 0 0 1-1.456.418Zm.166-4.664a.763.763 0 0 1-.545.649v.016a.763.763 0 0 1-.945-.536.762.762 0 1 1 1.49-.129Zm1.028 1.298a.757.757 0 0 1 .455-.362v.017c.4-.116.818.107.945.502a.757.757 0 0 1-.52.94.768.768 0 0 1-.944-.52.757.757 0 0 1 .064-.577Zm3.511-.688.376-.636a.74.74 0 0 0-.376.636Zm0 .001v-.001.001Zm0 .015v-.015.015Zm-2.468-1.834a.763.763 0 0 1 .55-.647v.017a.757.757 0 0 1 .94.503.763.763 0 1 1-1.49.127Zm3.623-.746a.763.763 0 0 1 .52-.945v.016a.736.736 0 0 1 .397.011l-.73 1.222a.69.69 0 0 1-.187-.304Zm-1.94-2.691a.763.763 0 0 1 .945.514v.016c.107.4-.123.81-.52.928a.763.763 0 0 1-.425-1.458Z" clip-rule="evenodd"/></svg>