<svg xmlns="http://www.w3.org/2000/svg" fill="none" viewBox="0 0 48 48"><g clip-path="url(#a)"><path fill="#0ACF83" d="M16.003 48c4.416 0 8-3.584 8-8v-8h-8c-4.416 0-8 3.584-8 8s3.584 8 8 8Z"/><path fill="#A259FF" d="M8.003 24c0-4.416 3.584-8 8-8h8v16h-8c-4.416 0-8-3.584-8-8Z"/><path fill="#F24E1E" d="M8.003 8c0-4.416 3.584-8 8-8h8v16h-8c-4.416 0-8-3.584-8-8Z"/><path fill="#FF7262" d="M24.003 0h8c4.416 0 8 3.584 8 8s-3.584 8-8 8h-8V0Z"/><path fill="#1ABCFE" d="M40.003 24c0 4.416-3.584 8-8 8s-8-3.584-8-8 3.584-8 8-8 8 3.584 8 8Z"/></g><defs><clipPath id="a"><path fill="#fff" d="M8 0h32.006v48H8z"/></clipPath></defs></svg>