<svg xmlns="http://www.w3.org/2000/svg" fill="none" viewBox="0 0 48 48"><g clip-path="url(#a)"><path fill="#4285F4" d="M28.819 0H10.272C8.528 0 7 1.526 7 3.274v41.454c0 1.746 1.526 3.274 3.274 3.274h28.364c1.745 0 3.273-1.527 3.273-3.274V13.091l-7.636-5.455L28.82 0Z"/><path fill="#F1F1F1" d="M15.727 34.91H33.18v-2.182H15.73l-.002 2.181Zm0 4.364h13.09v-2.181h-13.09v2.18Zm0-15.274v2.181H33.18V24H15.727Zm0 6.545H33.18v-2.18H15.73l-.002 2.18Z"/><path fill="#A1C2FA" d="M28.82 0v9.819c0 1.745 1.526 3.272 3.271 3.272h9.819L28.82 0Z"/></g><defs><clipPath id="a"><path fill="#fff" d="M0 0h48v48H0z"/></clipPath></defs></svg>