<svg xmlns="http://www.w3.org/2000/svg" fill="none" viewBox="0 0 48 48"><path fill="#7856FF" fill-rule="evenodd" d="M40.824 24.33c0 1.559 1.2 2.811 2.812 2.811 1.674 0 2.813-1.252 2.795-2.812V11.96c0-7-3.46-11.959-10.697-11.959-4.24 0-7.648 1.735-9.979 5.318C24.143 2.155 20.911 0 16.61 0c-3.53 0-6.816 1.849-8.428 5.02V3.11c0-1.55-.902-2.865-2.812-2.865-1.735 0-2.813 1.192-2.813 2.865v21.22c0 1.559 1.2 2.811 2.813 2.811 1.673 0 2.812-1.261 2.812-2.812V12.432c0-3.943 2.383-7.35 6.93-7.35 4.424 0 6.58 3.162 6.58 7.288v11.96c0 1.559 1.138 2.811 2.812 2.811 1.734 0 2.812-1.261 2.812-2.812V12.432c0-3.943 2.69-7.35 7.114-7.35 4.424 0 6.395 3.162 6.395 7.288v11.96Zm-28.33 17.923a5.747 5.747 0 1 1-11.494 0 5.747 5.747 0 0 1 11.494 0Zm19.064.061a4.065 4.065 0 1 1-8.13 0 4.065 4.065 0 0 1 8.13 0Zm13.045 1.849a1.849 1.849 0 1 0 0-3.697 1.849 1.849 0 0 0 0 3.697Z" clip-rule="evenodd"/></svg>